<svg width="703" height="597" viewBox="0 0 703 597" fill="none" xmlns="http://www.w3.org/2000/svg">
<path d="M224.92 486V459.6H245.48V464.92H231.8V470.28H242.68V475.28H231.8V480.68H246V486H224.92ZM262.754 459.6C265.901 459.6 268.341 460.347 270.074 461.84C271.834 463.307 272.714 465.267 272.714 467.72C272.714 470.413 271.848 472.467 270.114 473.88C268.381 475.293 265.941 476 262.794 476L262.154 476.36H256.914V486H250.154V459.6H262.754ZM261.794 471.48C263.128 471.48 264.128 471.213 264.794 470.68C265.461 470.147 265.794 469.293 265.794 468.12C265.794 466.973 265.461 466.133 264.794 465.6C264.128 465.067 263.128 464.8 261.794 464.8H256.914V471.48H261.794ZM265.834 472.92L274.274 486H266.674L259.914 474.44L265.834 472.92ZM237.52 506.6C240.667 506.6 243.107 507.347 244.84 508.84C246.6 510.307 247.48 512.267 247.48 514.72C247.48 517.413 246.613 519.467 244.88 520.88C243.147 522.293 240.707 523 237.56 523L236.92 523.36H231.68V533H224.92V506.6H237.52ZM236.56 518.48C237.893 518.48 238.893 518.213 239.56 517.68C240.227 517.147 240.56 516.293 240.56 515.12C240.56 513.973 240.227 513.133 239.56 512.6C238.893 512.067 237.893 511.8 236.56 511.8H231.68V518.48H236.56ZM240.6 519.92L249.04 533H241.44L234.68 521.44L240.6 519.92ZM264.065 506.2C266.731 506.2 269.025 506.747 270.945 507.84C272.891 508.907 274.385 510.453 275.425 512.48C276.465 514.507 276.985 516.947 276.985 519.8C276.985 522.653 276.465 525.093 275.425 527.12C274.385 529.147 272.891 530.707 270.945 531.8C269.025 532.867 266.731 533.4 264.065 533.4C261.398 533.4 259.091 532.867 257.145 531.8C255.198 530.707 253.705 529.147 252.665 527.12C251.625 525.093 251.105 522.653 251.105 519.8C251.105 516.947 251.625 514.507 252.665 512.48C253.705 510.453 255.198 508.907 257.145 507.84C259.091 506.747 261.398 506.2 264.065 506.2ZM264.065 511.6C262.785 511.6 261.705 511.907 260.825 512.52C259.945 513.133 259.278 514.053 258.825 515.28C258.371 516.48 258.145 517.987 258.145 519.8C258.145 521.587 258.371 523.093 258.825 524.32C259.278 525.547 259.945 526.467 260.825 527.08C261.705 527.693 262.785 528 264.065 528C265.345 528 266.411 527.693 267.265 527.08C268.145 526.467 268.811 525.547 269.265 524.32C269.718 523.093 269.945 521.587 269.945 519.8C269.945 517.987 269.718 516.48 269.265 515.28C268.811 514.053 268.145 513.133 267.265 512.52C266.411 511.907 265.345 511.6 264.065 511.6Z" fill="#F2404A"/>
<path d="M218 220.003C202.491 333.41 168.95 333.41 109 330.107C48.801 330.107 0 280.812 0 220.003C0 159.194 81.501 111 141.7 111C201.899 111 218 159.194 218 220.003Z" fill="#FFDDA9"/>
<path d="M476.919 109.953C476.919 170.678 397.628 232 337.451 232C277.274 232 259 170.678 259 109.953C259 49.2275 307.783 0 367.96 0C428.137 0 486.726 26.3886 476.919 109.953Z" fill="#FFDDA9"/>
<path d="M703 227.09C703 288.003 689.957 320.839 588.87 344C528.839 344 478 295.723 478 234.811C478 173.898 517.13 107.976 594.304 116.798C654.335 116.798 697.565 143.268 703 227.09Z" fill="#FFDDA9"/>
<path d="M607.138 486.671C607.138 547.604 545.509 597 485.556 597C425.602 597 377 547.604 377 486.671C377 425.739 437.543 362 497.497 362C557.45 362 615.822 400.615 607.138 486.671Z" fill="#FFDDA9"/>
<path d="M337 464.189C323.98 574 288.423 574 228.5 574C131.935 574 120 524.836 120 464.189C120 403.542 168.577 345.593 228.5 345.593C331.575 332.418 337 403.542 337 464.189Z" fill="#FFDDA9"/>
<path d="M26.0004 207.096L27.1592 180.721L47.6984 181.646L47.4649 186.96L33.7987 186.345L33.5634 191.7L44.4324 192.189L44.213 197.185L33.344 196.695L33.1069 202.09L47.2926 202.729L47.0591 208.044L26.0004 207.096ZM75.185 209.309L68.1121 208.991L66.5356 202.954L57.5047 202.548L55.365 208.417L48.452 208.106L58.8814 182.149L67.1131 182.519L75.185 209.309ZM58.9888 197.93L65.4623 198.221L62.6944 187.406L58.9888 197.93ZM89.621 183.132C92.0718 183.242 94.2127 183.726 96.0435 184.582C97.9022 185.413 99.4919 186.593 100.813 188.12L97.3013 192.407C96.2085 191.156 95.0089 190.208 93.7027 189.562C92.4243 188.891 90.9459 188.517 89.2676 188.442C88.2819 188.397 87.4781 188.468 86.856 188.653C86.2339 188.839 85.7815 189.112 85.4987 189.473C85.2159 189.834 85.064 190.254 85.0429 190.734C85.0183 191.293 85.2503 191.784 85.7389 192.207C86.2553 192.604 87.0938 192.962 88.2542 193.281L92.6458 194.48C95.2562 195.211 97.1484 196.19 98.3223 197.418C99.4963 198.645 100.04 200.231 99.955 202.176C99.8731 204.041 99.324 205.605 98.3076 206.867C97.2924 208.102 95.931 209.015 94.2234 209.606C92.517 210.17 90.5849 210.403 88.4271 210.306C86.6689 210.227 84.9988 209.965 83.4168 209.52C81.836 209.048 80.422 208.424 79.1749 207.647C77.9278 206.87 76.8852 205.996 76.047 205.024L79.5656 200.578C80.1976 201.38 80.9797 202.109 81.9118 202.765C82.8717 203.396 83.9168 203.91 85.0471 204.308C86.204 204.707 87.3819 204.934 88.5807 204.987C89.5131 205.029 90.2897 204.971 90.9106 204.812C91.5582 204.654 92.0367 204.396 92.3461 204.036C92.6555 203.676 92.8213 203.243 92.8436 202.737C92.8682 202.177 92.6888 201.702 92.3056 201.311C91.9236 200.894 91.179 200.526 90.0718 200.21L85.2442 198.911C83.7676 198.498 82.4555 197.985 81.3079 197.373C80.1882 196.735 79.3164 195.922 78.6925 194.933C78.0698 193.917 77.7907 192.677 77.855 191.211C77.9276 189.56 78.4449 188.115 79.4068 186.877C80.3699 185.612 81.7203 184.645 83.458 183.976C85.1957 183.307 87.2501 183.025 89.621 183.132ZM127.283 185.228L117.237 201.553L116.814 211.183L109.941 210.874L110.364 201.243L101.789 184.08L108.902 184.4L112.3 191.801L114.065 196.285L116.256 191.979L120.29 184.913L127.283 185.228ZM166.104 186.975L165.87 192.29L157.279 191.903L156.354 212.963L149.481 212.654L150.406 191.594L141.775 191.205L142.008 185.891L166.104 186.975ZM180.786 187.236C183.45 187.355 185.717 188.005 187.587 189.183C189.484 190.337 190.908 191.949 191.858 194.02C192.808 196.092 193.221 198.553 193.096 201.403C192.97 204.254 192.344 206.668 191.216 208.646C190.088 210.624 188.528 212.116 186.535 213.12C184.57 214.1 182.256 214.529 179.592 214.409C176.928 214.289 174.647 213.653 172.749 212.5C170.852 211.32 169.429 209.694 168.479 207.623C167.529 205.551 167.116 203.09 167.242 200.24C167.367 197.389 167.994 194.975 169.121 192.997C170.249 191.019 171.809 189.541 173.801 188.563C175.793 187.558 178.122 187.116 180.786 187.236ZM180.549 192.63C179.27 192.573 178.177 192.831 177.271 193.404C176.365 193.977 175.659 194.866 175.152 196.071C174.647 197.25 174.354 198.745 174.275 200.556C174.196 202.341 174.356 203.857 174.756 205.102C175.155 206.348 175.78 207.297 176.632 207.95C177.485 208.602 178.55 208.957 179.829 209.015C181.107 209.072 182.186 208.814 183.066 208.239C183.972 207.666 184.678 206.777 185.185 205.572C185.692 204.367 185.984 202.872 186.063 201.087C186.142 199.275 185.982 197.76 185.582 196.541C185.183 195.295 184.557 194.346 183.705 193.693C182.879 193.042 181.827 192.688 180.549 192.63ZM34.7687 234.438L37.9884 237.706L41.1136 242.211L37.0729 244.872L34.1545 240.216L32.4572 236.015L33.613 235.226L34.7687 234.438ZM32.531 234.337L33.613 235.226L34.695 236.116L32.5961 240.146L29.2808 244.521L25.5294 241.509L29.0374 237.303L32.531 234.337ZM25.1371 229.479L30.2128 231.51L34.1105 233.927L33.613 235.226L33.1155 236.525L28.5829 235.801L23.4566 234.008L25.1371 229.479ZM36.4477 225.384L36.0873 230.853L35.0116 235.289L33.613 235.226L32.2144 235.163L31.5319 230.648L31.6126 225.166L36.4477 225.384ZM42.5994 230.265L43.876 234.928L38.5328 236.249L33.9946 236.565L33.613 235.226L33.2314 233.888L37.3256 231.83L42.5994 230.265ZM65.9695 250.617L79.1961 251.212L78.9626 256.527L58.863 255.622L60.0218 229.248L66.8948 229.557L65.9695 250.617ZM82.9011 256.704L84.0599 230.33L104.599 231.254L104.366 236.569L90.6994 235.954L90.4642 241.309L101.333 241.798L101.114 246.793L90.2447 246.304L90.0077 251.699L104.193 252.337L103.96 257.652L82.9011 256.704ZM132.086 258.918L125.013 258.6L123.436 252.563L114.405 252.156L112.266 258.026L105.353 257.715L115.782 231.758L124.014 232.128L132.086 258.918ZM115.89 247.538L122.363 247.83L119.595 237.014L115.89 247.538ZM148.899 233.248C152.042 233.39 154.447 234.245 156.113 235.815C157.807 237.36 158.6 239.357 158.492 241.808C158.374 244.499 157.418 246.511 155.625 247.845C153.831 249.179 151.363 249.776 148.219 249.634L147.564 249.965L142.329 249.73L141.906 259.36L135.153 259.056L136.312 232.682L148.899 233.248ZM147.418 245.074C148.75 245.134 149.761 244.912 150.451 244.409C151.14 243.906 151.51 243.069 151.562 241.897C151.612 240.751 151.316 239.897 150.674 239.334C150.031 238.771 149.044 238.46 147.712 238.4L142.837 238.181L142.543 244.854L147.418 245.074ZM151.391 246.694L159.249 260.141L151.656 259.799L145.41 247.946L151.391 246.694ZM187.638 234.992L186.479 261.367L178.847 261.023L171.282 246.388L169.456 242.382L169.416 242.38L169.362 247.263L168.777 260.57L162.703 260.296L163.862 233.922L171.494 234.265L179.059 248.9L180.885 252.906L180.925 252.908L180.979 248.026L181.564 234.719L187.638 234.992Z" fill="#875100"/>
<path d="M296.605 103.75L293.244 77.5648L313.629 74.8848L314.306 80.1615L300.743 81.9447L301.425 87.2611L312.212 85.8429L312.849 90.8022L302.061 92.2204L302.749 97.5765L316.828 95.7255L317.505 101.002L296.605 103.75ZM339.285 76.8774L325.762 78.6554L326.475 84.2098L337.262 82.7916L337.939 88.0683L327.152 89.4866L328.445 99.5639L321.624 100.461L318.263 74.2755L338.608 71.6007L339.285 76.8774ZM363.569 73.6848L350.045 75.4628L350.758 81.0172L361.545 79.599L362.222 84.8758L351.435 86.294L352.728 96.3713L345.907 97.2681L342.547 71.0829L362.892 68.4081L363.569 73.6848ZM370.19 94.0756L366.83 67.8903L387.214 65.2103L387.892 70.487L374.328 72.2702L375.011 77.5866L385.798 76.1684L386.434 81.1277L375.647 82.5459L376.334 87.902L390.413 86.051L391.09 91.3278L370.19 94.0756ZM417.215 80.2681C416.947 82.1591 416.334 83.7728 415.376 85.109C414.415 86.4188 413.203 87.4522 411.741 88.2093C410.276 88.9399 408.618 89.4269 406.767 89.6702C404.123 90.0178 401.768 89.7895 399.702 88.9852C397.633 88.1545 395.954 86.8019 394.665 84.9273C393.376 83.0526 392.549 80.7003 392.186 77.8701C391.823 75.04 392.028 72.5521 392.801 70.4063C393.574 68.2606 394.858 66.5319 396.652 65.2201C398.443 63.8819 400.647 63.0408 403.265 62.6966C405.089 62.4568 406.802 62.5006 408.403 62.8279C410.001 63.1289 411.397 63.7388 412.59 64.6578C413.784 65.5767 414.712 66.8398 415.375 68.4471L409.697 71.6545C409.117 70.0633 408.365 69.0191 407.44 68.522C406.543 68.0214 405.459 67.8546 404.19 68.0214C402.948 68.1848 401.903 68.6315 401.055 69.3615C400.234 70.088 399.651 71.0927 399.305 72.3754C398.982 73.6282 398.935 75.1539 399.166 76.9525C399.394 78.7246 399.81 80.1895 400.416 81.3471C401.021 82.5047 401.813 83.3285 402.79 83.8187C403.793 84.3054 404.969 84.4601 406.317 84.2828C407.586 84.116 408.613 83.6313 409.397 82.8289C410.205 81.9966 410.674 80.8322 410.804 79.3358L417.215 80.2681ZM440.621 58.1887L441.299 63.4654L432.772 64.5865L435.455 85.495L428.634 86.3918L425.951 65.4833L417.384 66.6095L416.707 61.3328L440.621 58.1887ZM306.048 123.286L309.408 149.471L302.587 150.368L299.227 124.182L306.048 123.286ZM335.806 119.373L329.887 146.779L321.876 147.832L309.195 122.872L316.374 121.928L323.204 137.127L325.293 142.097L326.03 136.837L328.866 120.286L335.806 119.373ZM342.285 145.149L338.924 118.963L359.309 116.283L359.986 121.56L346.423 123.343L347.105 128.66L357.892 127.241L358.529 132.201L347.741 133.619L348.429 138.975L362.508 137.124L363.185 142.401L342.285 145.149ZM370.527 114.808L371.611 123.259L372.039 132.563L366.526 133.288L364.592 124.182L363.507 115.731L370.527 114.808ZM369.548 135.15C370.764 134.99 371.74 135.157 372.476 135.652C373.238 136.144 373.687 136.918 373.822 137.976C373.955 139.008 373.715 139.86 373.102 140.532C372.516 141.201 371.614 141.615 370.398 141.775C369.235 141.928 368.272 141.759 367.51 141.267C366.748 140.776 366.301 140.014 366.168 138.983C366.033 137.925 366.271 137.06 366.884 136.387C367.497 135.715 368.385 135.302 369.548 135.15Z" fill="#875100"/>
<path d="M525.033 219.422L524.952 193.022L545.512 192.958L545.528 198.278L531.848 198.321L531.865 203.681L542.745 203.647L542.76 208.647L531.88 208.681L531.896 214.081L546.096 214.037L546.112 219.357L525.033 219.422ZM570.723 198.2L557.083 198.242L557.1 203.842L567.98 203.808L567.996 209.128L557.116 209.162L557.147 219.322L550.267 219.344L550.186 192.944L570.706 192.88L570.723 198.2ZM595.215 198.124L581.575 198.166L581.592 203.766L592.472 203.732L592.488 209.052L581.608 209.086L581.639 219.246L574.759 219.267L574.679 192.868L595.198 192.804L595.215 198.124ZM606.051 192.77L606.131 219.17L599.251 219.191L599.171 192.791L606.051 192.77ZM635.362 211.518C634.861 213.36 634.052 214.883 632.936 216.086C631.82 217.263 630.489 218.134 628.944 218.699C627.399 219.237 625.693 219.509 623.826 219.514C621.16 219.523 618.851 218.997 616.902 217.936C614.952 216.849 613.454 215.293 612.407 213.27C611.361 211.247 610.834 208.808 610.825 205.955C610.816 203.102 611.329 200.66 612.363 198.63C613.397 196.6 614.885 195.049 616.829 193.976C618.772 192.877 621.064 192.323 623.704 192.315C625.544 192.309 627.238 192.57 628.786 193.099C630.334 193.601 631.643 194.383 632.713 195.447C633.783 196.51 634.547 197.881 635.006 199.56L628.973 202.018C628.595 200.366 627.978 199.235 627.123 198.624C626.294 198.013 625.24 197.71 623.96 197.714C622.707 197.718 621.614 198.028 620.683 198.644C619.778 199.26 619.074 200.183 618.571 201.411C618.095 202.612 617.86 204.12 617.865 205.933C617.87 207.72 618.102 209.226 618.559 210.451C619.016 211.676 619.699 212.594 620.607 213.204C621.542 213.815 622.69 214.118 624.05 214.114C625.33 214.11 626.409 213.76 627.287 213.064C628.191 212.341 628.801 211.246 629.117 209.778L635.362 211.518ZM646.011 192.645L646.092 219.045L639.212 219.067L639.131 192.667L646.011 192.645ZM525.176 266.422L525.095 240.022L545.655 239.958L545.671 245.278L531.991 245.321L532.008 250.681L542.888 250.647L542.903 255.647L532.023 255.681L532.039 261.081L546.239 261.036L546.255 266.356L525.176 266.422ZM574.129 239.869L574.21 266.269L566.57 266.293L558.326 252.039L556.314 248.125L556.274 248.125L556.449 253.005L556.49 266.325L550.41 266.344L550.329 239.944L557.969 239.92L566.213 254.174L568.225 258.088L568.265 258.088L568.09 253.208L568.049 239.888L574.129 239.869ZM602.178 239.782L602.194 245.102L593.594 245.129L593.658 266.209L586.778 266.23L586.714 245.15L578.074 245.177L578.058 239.857L602.178 239.782Z" fill="#875100"/>
<path d="M165.033 408.459L164.952 382.06L185.512 381.996L185.528 387.316L171.848 387.358L171.865 392.718L182.745 392.684L182.76 397.684L171.88 397.718L171.896 403.118L186.096 403.074L186.112 408.394L165.033 408.459ZM202.786 381.942C205.933 381.932 208.375 382.671 210.113 384.159C211.878 385.62 212.764 387.577 212.771 390.031C212.779 392.724 211.919 394.78 210.19 396.199C208.461 397.617 206.023 398.332 202.876 398.341L202.237 398.703L196.997 398.72L197.027 408.36L190.267 408.381L190.186 381.981L202.786 381.942ZM201.863 393.825C203.196 393.82 204.195 393.551 204.86 393.015C205.525 392.48 205.856 391.626 205.852 390.452C205.849 389.306 205.513 388.467 204.845 387.935C204.176 387.404 203.176 387.141 201.842 387.145L196.962 387.16L196.983 393.84L201.863 393.825ZM205.907 395.252L214.387 408.306L206.787 408.329L199.992 396.79L205.907 395.252ZM230.364 381.856C233.511 381.846 235.953 382.585 237.691 384.073C239.456 385.534 240.342 387.491 240.349 389.945C240.357 392.638 239.497 394.694 237.768 396.113C236.039 397.531 233.601 398.246 230.454 398.256L229.815 398.618L224.575 398.634L224.605 408.274L217.845 408.295L217.764 381.895L230.364 381.856ZM229.441 393.739C230.774 393.735 231.773 393.465 232.438 392.929C233.103 392.394 233.434 391.54 233.43 390.366C233.427 389.22 233.091 388.381 232.423 387.849C231.754 387.318 230.754 387.055 229.42 387.059L224.54 387.074L224.561 393.754L229.441 393.739ZM233.485 395.166L241.965 408.22L234.365 408.243L227.57 396.705L233.485 395.166ZM256.908 381.373C259.574 381.365 261.869 381.904 263.793 382.992C265.743 384.052 267.241 385.594 268.287 387.618C269.333 389.641 269.86 392.079 269.869 394.933C269.878 397.786 269.365 400.228 268.331 402.258C267.298 404.287 265.809 405.852 263.866 406.951C261.949 408.024 259.657 408.565 256.99 408.573C254.324 408.581 252.016 408.055 250.066 406.994C248.116 405.907 246.618 404.352 245.571 402.328C244.525 400.305 243.998 397.867 243.989 395.013C243.981 392.16 244.493 389.718 245.527 387.689C246.561 385.659 248.049 384.107 249.993 383.035C251.936 381.935 254.241 381.381 256.908 381.373ZM256.924 386.773C255.644 386.777 254.565 387.087 253.687 387.703C252.809 388.319 252.145 389.241 251.695 390.469C251.246 391.671 251.024 393.178 251.029 394.991C251.035 396.778 251.266 398.284 251.723 399.509C252.18 400.735 252.849 401.652 253.731 402.263C254.613 402.874 255.694 403.177 256.974 403.173C258.254 403.169 259.32 402.859 260.171 402.243C261.049 401.627 261.713 400.705 262.163 399.477C262.612 398.249 262.835 396.741 262.829 394.955C262.824 393.141 262.592 391.635 262.135 390.437C261.678 389.212 261.009 388.294 260.127 387.683C259.272 387.072 258.204 386.769 256.924 386.773ZM287.161 381.679C290.308 381.669 292.75 382.408 294.488 383.896C296.252 385.357 297.138 387.314 297.146 389.768C297.154 392.461 296.293 394.517 294.564 395.936C292.835 397.354 290.398 398.069 287.251 398.079L286.612 398.441L281.372 398.457L281.401 408.097L274.641 408.118L274.561 381.718L287.161 381.679ZM286.237 393.562C287.57 393.558 288.57 393.288 289.235 392.752C289.9 392.217 290.23 391.363 290.227 390.189C290.223 389.043 289.888 388.204 289.219 387.672C288.551 387.141 287.55 386.878 286.217 386.882L281.337 386.897L281.357 393.577L286.237 393.562ZM290.282 394.989L298.761 408.043L291.161 408.066L284.366 396.528L290.282 394.989ZM175.074 435.348L178.444 438.458L181.777 442.807L177.866 445.66L174.732 441.149L172.84 437.035L173.957 436.192L175.074 435.348ZM172.834 435.355L173.957 436.192L175.079 437.028L173.172 441.154L170.066 445.684L166.177 442.856L169.484 438.486L172.834 435.355ZM165.221 430.859L170.386 432.643L174.393 434.87L173.957 436.192L173.521 437.513L168.959 437.007L163.755 435.464L165.221 430.859ZM176.327 426.224L176.223 431.705L175.357 436.187L173.957 436.192L172.557 436.196L171.663 431.719L171.487 426.239L176.327 426.224ZM182.701 430.805L184.195 435.4L178.919 436.976L174.401 437.51L173.957 436.192L173.513 434.873L177.506 432.621L182.701 430.805ZM187.438 475.99L187.454 481.31L178.854 481.337L178.918 502.417L172.038 502.438L171.974 481.358L163.334 481.385L163.318 476.065L187.438 475.99ZM202.116 475.544C204.782 475.536 207.077 476.075 209.001 477.163C210.951 478.223 212.449 479.765 213.495 481.789C214.541 483.812 215.068 486.251 215.077 489.104C215.086 491.957 214.573 494.399 213.539 496.429C212.506 498.459 211.017 500.023 209.074 501.123C207.157 502.195 204.865 502.736 202.199 502.744C199.532 502.752 197.224 502.226 195.274 501.166C193.324 500.078 191.826 498.523 190.78 496.5C189.733 494.476 189.206 492.038 189.197 489.185C189.189 486.331 189.701 483.89 190.735 481.86C191.769 479.83 193.257 478.279 195.201 477.206C197.144 476.106 199.449 475.553 202.116 475.544ZM202.132 480.944C200.852 480.948 199.773 481.258 198.895 481.874C198.017 482.49 197.353 483.412 196.903 484.641C196.454 485.842 196.232 487.349 196.237 489.163C196.243 490.949 196.474 492.455 196.931 493.68C197.388 494.906 198.058 495.824 198.939 496.434C199.821 497.045 200.902 497.348 202.182 497.344C203.462 497.34 204.528 497.03 205.379 496.414C206.257 495.798 206.921 494.876 207.371 493.648C207.821 492.42 208.043 490.913 208.037 489.126C208.032 487.313 207.8 485.807 207.343 484.608C206.886 483.383 206.217 482.465 205.335 481.854C204.48 481.244 203.412 480.94 202.132 480.944ZM226.713 496.948L239.953 496.906L239.969 502.226L219.849 502.289L219.769 475.889L226.649 475.868L226.713 496.948ZM243.912 502.214L243.832 475.814L264.391 475.75L264.408 481.07L250.728 481.113L250.744 486.473L261.624 486.439L261.639 491.439L250.759 491.473L250.776 496.873L264.976 496.828L264.992 502.148L243.912 502.214ZM281.666 475.696C284.812 475.687 287.255 476.426 288.993 477.913C290.757 479.375 291.643 481.332 291.65 483.785C291.659 486.479 290.798 488.535 289.069 489.953C287.34 491.372 284.902 492.086 281.756 492.096L281.117 492.458L275.877 492.474L275.906 502.114L269.146 502.135L269.066 475.736L281.666 475.696ZM280.742 487.579C282.075 487.575 283.074 487.305 283.739 486.77C284.404 486.235 284.735 485.38 284.732 484.207C284.728 483.06 284.392 482.221 283.724 481.69C283.056 481.159 282.055 480.895 280.722 480.899L275.842 480.914L275.862 487.594L280.742 487.579ZM284.786 489.007L293.266 502.06L285.666 502.084L278.871 490.545L284.786 489.007ZM189.461 549.384L182.381 549.406L180.523 543.452L171.483 543.48L169.621 549.446L162.701 549.467L171.901 523.039L180.141 523.013L189.461 549.384ZM172.749 538.796L179.229 538.776L175.957 528.106L172.749 538.796ZM216.251 522.9L216.332 549.3L208.692 549.324L200.448 535.07L198.436 531.156L198.396 531.156L198.571 536.036L198.612 549.356L192.532 549.374L192.451 522.975L200.091 522.951L208.335 537.205L210.347 541.119L210.387 541.119L210.212 536.239L210.171 522.919L216.251 522.9ZM244.3 522.813L244.316 528.133L235.716 528.16L235.78 549.24L228.9 549.261L228.836 528.181L220.196 528.208L220.18 522.888L244.3 522.813ZM254.872 522.78L254.898 531.3L254.166 540.582L248.606 540.6L247.818 531.322L247.792 522.802L254.872 522.78ZM251.373 542.831C252.6 542.827 253.547 543.118 254.216 543.702C254.911 544.287 255.26 545.112 255.263 546.179C255.267 547.219 254.922 548.033 254.231 548.622C253.566 549.211 252.62 549.507 251.394 549.511C250.22 549.515 249.286 549.224 248.591 548.64C247.896 548.055 247.547 547.243 247.543 546.203C247.54 545.136 247.884 544.309 248.576 543.72C249.267 543.131 250.2 542.835 251.373 542.831Z" fill="#875100"/>
<path d="M421.033 464.459L420.952 438.06L441.512 437.996L441.528 443.316L427.848 443.358L427.865 448.718L438.745 448.684L438.76 453.684L427.88 453.718L427.896 459.118L442.096 459.074L442.112 464.394L421.033 464.459ZM469.986 437.907L470.067 464.307L462.427 464.33L454.183 450.076L452.171 446.162L452.131 446.162L452.306 451.042L452.347 464.362L446.267 464.381L446.186 437.981L453.826 437.957L462.07 452.212L464.082 456.125L464.122 456.125L463.947 451.246L463.906 437.926L469.986 437.907ZM486.836 464.654C484.49 464.662 482.395 464.148 480.552 463.114C478.735 462.08 477.317 460.551 476.298 458.527C475.278 456.504 474.764 454.039 474.755 451.132C474.746 448.279 475.272 445.837 476.333 443.807C477.393 441.777 478.909 440.212 480.879 439.113C482.875 438.013 485.22 437.459 487.914 437.451C490.9 437.442 493.315 437.981 495.158 439.068C497.002 440.129 498.434 441.831 499.454 444.175L493.102 446.715C492.751 445.356 492.135 444.371 491.253 443.761C490.371 443.15 489.277 442.847 487.97 442.851C486.663 442.855 485.544 443.178 484.613 443.821C483.681 444.437 482.978 445.36 482.501 446.588C482.025 447.789 481.789 449.283 481.795 451.07C481.801 452.937 482.045 454.496 482.529 455.748C483.04 457 483.776 457.931 484.738 458.541C485.726 459.125 486.94 459.414 488.38 459.41C489.154 459.407 489.86 459.312 490.499 459.123C491.139 458.934 491.698 458.666 492.177 458.318C492.656 457.943 493.028 457.488 493.293 456.954C493.558 456.393 493.689 455.74 493.687 454.993L493.686 454.593L487.646 454.612L487.632 450.012L499.512 449.975L499.555 464.215L494.875 464.229L494.336 458.031L495.459 458.988C494.905 460.803 493.895 462.206 492.432 463.197C490.995 464.161 489.13 464.647 486.836 464.654ZM528.821 464.124L521.741 464.146L519.883 458.191L510.843 458.22L508.981 464.185L502.061 464.207L511.261 437.778L519.501 437.752L528.821 464.124ZM512.109 453.536L518.589 453.515L515.316 442.846L512.109 453.536ZM541.836 464.483C539.489 464.49 537.394 463.977 535.551 462.943C533.735 461.908 532.317 460.379 531.297 458.356C530.278 456.332 529.764 453.867 529.755 450.961C529.746 448.107 530.272 445.666 531.333 443.636C532.393 441.606 533.908 440.041 535.878 438.941C537.875 437.842 540.22 437.288 542.913 437.28C545.9 437.27 548.315 437.809 550.158 438.897C552.001 439.958 553.433 441.66 554.454 444.004L548.101 446.543C547.751 445.184 547.134 444.2 546.252 443.589C545.371 442.979 544.276 442.675 542.97 442.679C541.663 442.683 540.544 443.007 539.613 443.65C538.681 444.266 537.977 445.188 537.501 446.416C537.025 447.618 536.789 449.112 536.795 450.899C536.8 452.765 537.045 454.325 537.529 455.576C538.039 456.828 538.776 457.759 539.737 458.37C540.726 458.953 541.94 459.243 543.38 459.238C544.153 459.236 544.86 459.14 545.499 458.952C546.139 458.763 546.698 458.494 547.177 458.146C547.656 457.771 548.028 457.317 548.293 456.783C548.558 456.222 548.689 455.568 548.687 454.822L548.685 454.422L542.645 454.44L542.631 449.84L554.511 449.803L554.555 464.043L549.875 464.058L549.336 457.86L550.459 458.816C549.904 460.631 548.895 462.034 547.432 463.026C545.994 463.99 544.129 464.476 541.836 464.483ZM427.975 485.038L428.055 511.438L421.176 511.459L421.095 485.059L427.975 485.038ZM457.629 484.946L457.71 511.345L450.07 511.369L441.826 497.115L439.814 493.201L439.774 493.201L439.949 498.081L439.99 511.401L433.91 511.42L433.83 485.02L441.469 484.996L449.713 499.25L451.725 503.164L451.765 503.164L451.59 498.284L451.549 484.964L457.629 484.946ZM474.479 511.693C472.133 511.7 470.038 511.187 468.195 510.153C466.378 509.118 464.96 507.589 463.941 505.566C462.921 503.542 462.407 501.077 462.398 498.171C462.389 495.317 462.915 492.876 463.976 490.846C465.036 488.816 466.552 487.251 468.522 486.152C470.518 485.052 472.863 484.498 475.557 484.49C478.543 484.48 480.958 485.019 482.801 486.107C484.645 487.168 486.077 488.87 487.097 491.214L480.745 493.754C480.394 492.395 479.778 491.41 478.896 490.799C478.014 490.189 476.92 489.885 475.613 489.89C474.306 489.894 473.187 490.217 472.256 490.86C471.324 491.476 470.621 492.398 470.144 493.627C469.668 494.828 469.432 496.322 469.438 498.109C469.444 499.975 469.688 501.535 470.172 502.787C470.683 504.038 471.419 504.969 472.381 505.58C473.369 506.163 474.583 506.453 476.023 506.448C476.797 506.446 477.503 506.35 478.142 506.162C478.782 505.973 479.341 505.705 479.82 505.356C480.299 504.982 480.671 504.527 480.936 503.993C481.201 503.432 481.332 502.778 481.33 502.032L481.329 501.632L475.289 501.651L475.275 497.051L487.155 497.014L487.198 511.254L482.518 511.268L481.979 505.07L483.102 506.026C482.548 507.841 481.539 509.244 480.075 510.236C478.638 511.2 476.773 511.686 474.479 511.693ZM506.967 490.792C508.221 490.788 509.195 491.105 509.89 491.743C510.612 492.38 510.975 493.273 510.978 494.419C510.982 495.539 510.625 496.42 509.906 497.063C509.215 497.705 508.243 498.028 506.989 498.032C505.763 498.036 504.788 497.719 504.067 497.081C503.345 496.443 502.982 495.564 502.979 494.444C502.975 493.298 503.332 492.403 504.05 491.761C504.768 491.119 505.741 490.796 506.967 490.792ZM507.009 504.312C508.262 504.308 509.236 504.625 509.931 505.263C510.653 505.9 511.016 506.793 511.02 507.939C511.023 509.059 510.666 509.94 509.948 510.583C509.256 511.225 508.284 511.548 507.031 511.552C505.804 511.556 504.83 511.239 504.108 510.601C503.386 509.963 503.023 509.084 503.02 507.964C503.016 506.818 503.373 505.923 504.091 505.281C504.81 504.639 505.782 504.316 507.009 504.312ZM516.683 518.802L513.473 515.692C514.989 514.327 516.212 512.883 517.14 511.36C518.096 509.864 518.784 508.208 519.205 506.394C519.626 504.552 519.833 502.512 519.827 500.272C519.82 498.005 519.6 495.966 519.168 494.154C518.736 492.342 518.037 490.677 517.073 489.16C516.135 487.643 514.904 486.207 513.38 484.852L516.57 481.722C519.616 483.766 521.944 486.332 523.554 489.42C525.163 492.508 525.974 496.119 525.987 500.253C525.999 504.386 525.21 508.002 523.62 511.1C522.029 514.172 519.717 516.739 516.683 518.802Z" fill="#875100"/>
<path d="M345.378 211.042C346.335 206.623 352.74 206.945 353.26 211.438L359.872 268.569C360.162 271.076 362.672 272.694 365.074 271.922L419.363 254.456C423.653 253.076 426.6 258.747 423.002 261.46L377.169 296.014C375.179 297.515 375.034 300.454 376.869 302.147L419.093 341.128C422.407 344.188 418.92 349.536 414.786 347.732L362.474 324.908C360.16 323.899 357.503 325.257 356.969 327.723L344.797 383.91C343.84 388.328 337.435 388.006 336.915 383.513L330.303 326.382C330.013 323.875 327.503 322.257 325.101 323.03L270.812 340.495C266.522 341.875 263.575 336.204 267.173 333.491L313.005 298.937C314.996 297.436 315.141 294.497 313.306 292.804L271.082 253.823C267.767 250.763 271.255 245.415 275.389 247.219L327.701 270.043C330.015 271.053 332.672 269.694 333.206 267.228L345.378 211.042Z" fill="#F2404A"/>
</svg>
